HIERARCHY
ROOT RootJoint
{
    OFFSET   0.000000   0.000000   0.000000
    CHANNELS 6 Xposition Yposition Zposition Xrotation Yrotation Zrotation
    JOINT pelvis_lowerback
    {
        OFFSET   0.000000   0.093605   0.000000
        CHANNELS 3 Xrotation Yrotation Zrotation
        JOINT lowerback_torso
        {
            OFFSET   0.000000   0.100000   0.000000
            CHANNELS 3 Xrotation Yrotation Zrotation
            JOINT torso_head
            {
                OFFSET   0.000000   0.282350   0.000000
                CHANNELS 3 Xrotation Yrotation Zrotation
                End Site
                {
                    OFFSET   0.000000   0.192650   0.000000
                }
            }
            JOINT rTorso_Clavicle
            {
                OFFSET  -0.001000   0.157500   0.000000
                CHANNELS 3 Xrotation Yrotation Zrotation
                JOINT rShoulder
                {
                    OFFSET  -0.117647   0.000000   0.000000
                    CHANNELS 3 Xrotation Yrotation Zrotation
                    JOINT rElbow
                    {
                        OFFSET  -0.245000   0.000000   0.000000
                        CHANNELS 3 Xrotation Yrotation Zrotation
                        JOINT rWrist
                        {
                            OFFSET  -0.240000   0.000000   0.000000
                            CHANNELS 3 Xrotation Yrotation Zrotation
                            End Site
                            {
                                OFFSET  -0.116353  -0.002500   0.000000
                            }
                        }
                    }
                }
            }
            JOINT lTorso_Clavicle
            {
                OFFSET   0.001000   0.157500   0.000000
                CHANNELS 3 Xrotation Yrotation Zrotation
                JOINT lShoulder
                {
                    OFFSET   0.117647   0.000000   0.000000
                    CHANNELS 3 Xrotation Yrotation Zrotation
                    JOINT lElbow
                    {
                        OFFSET   0.245000   0.000000   0.000000
                        CHANNELS 3 Xrotation Yrotation Zrotation
                        JOINT lWrist
                        {
                            OFFSET   0.240000   0.000000   0.000000
                            CHANNELS 3 Xrotation Yrotation Zrotation
                            End Site
                            {
                                OFFSET   0.116353  -0.002500   0.000000
                            }
                        }
                    }
                }
            }
        }
    }
    JOINT rHip
    {
        OFFSET  -0.100000  -0.051395   0.000000
        CHANNELS 3 Xrotation Yrotation Zrotation
        JOINT rKnee
        {
            OFFSET   0.000000  -0.410000   0.000000
            CHANNELS 3 Xrotation Yrotation Zrotation
            JOINT rAnkle
            {
                OFFSET   0.000000  -0.390000   0.000000
                CHANNELS 3 Xrotation Yrotation Zrotation
                JOINT rToeJoint
                {
                    OFFSET   0.000000  -0.050000   0.130000
                    CHANNELS 3 Xrotation Yrotation Zrotation
                    End Site
                    {
                        OFFSET  -0.010000   0.002000   0.060000
                    }
                }
            }
        }
    }
    JOINT lHip
    {
        OFFSET   0.100000  -0.051395   0.000000
        CHANNELS 3 Xrotation Yrotation Zrotation
        JOINT lKnee
        {
            OFFSET   0.000000  -0.410000   0.000000
            CHANNELS 3 Xrotation Yrotation Zrotation
            JOINT lAnkle
            {
                OFFSET   0.000000  -0.390000   0.000000
                CHANNELS 3 Xrotation Yrotation Zrotation
                JOINT lToeJoint
                {
                    OFFSET   0.000000  -0.050000   0.130000
                    CHANNELS 3 Xrotation Yrotation Zrotation
                    End Site
                    {
                        OFFSET   0.010000   0.002000   0.060000
                    }
                }
            }
        }
    }
}
MOTION
Frames: 7
Frame Time:   0.008333
 -2.003408   0.986280   4.766826  -5.017606  28.560570   4.732932  16.829731   3.779645   1.075850  10.194125   0.397319   5.516866   7.260799   3.716738  -1.369733   7.346254   7.905252  21.655925   8.904008  -4.029941  16.429526   0.000034  21.923708  -0.000643  17.318841  -2.544041 -43.377026   4.899412  -6.779418 -16.980975   9.721947   5.149356  -2.928226  -0.000055 -40.922206  -0.000008  14.110508  -1.010736  41.590284   4.100101   2.663975   4.143734   6.818716   0.000021  -0.000220  33.609055  -1.536623  -7.137202 -45.000000  -0.000000  -0.000000 -10.927825 -11.175113   1.776101  28.108084  -0.001166   0.001739 -10.678508   0.755039   0.389991  -5.815081   0.000064   0.000065
 -2.002614   0.986008   4.767743  -5.032161  28.438561   4.750681  16.798862   3.805365   1.097679  10.104961   0.381441   5.463459   7.233640   3.771979  -1.413533   7.377554   7.862834  21.530397   9.055409  -3.878118  16.528142   0.000023  21.778885  -0.000505  17.326110  -2.487363 -43.197252   4.793342  -6.783906 -16.947032   9.633911   4.966227  -2.984497   0.000019 -40.897902   0.000078  14.218490  -0.930484  41.461349   4.170668   2.748902   4.099650   6.925316   0.000033  -0.000213  33.333060  -1.477261  -7.073500 -45.000000  -0.000000  -0.000000 -11.060069 -11.019073   1.650388  27.581081  -0.001472   0.001450 -10.443788   0.893927   0.444586  -5.753236   0.000079   0.000135
 -2.001831   0.985685   4.768597  -5.047631  28.362672   4.781588  16.772303   3.810937   1.122517  10.015932   0.347829   5.409621   7.207144   3.825286  -1.457701   7.406303   7.827547  21.405504   9.197301  -3.733140  16.617003   0.000029  21.644538  -0.000390  17.339314  -2.429726 -42.998301   4.680998  -6.816282 -16.906183   9.546263   4.773513  -3.025367   0.000057 -40.882532   0.000115  14.187010  -0.965522  41.377108   4.240889   2.850783   4.066718   7.024278   0.000030  -0.000149  33.051776  -1.521583  -7.190610 -45.000000  -0.000000  -0.000000 -11.206845 -10.867919   1.513684  27.059321  -0.001742   0.001035 -10.225257   1.024702   0.495104  -5.690412   0.000093   0.000211
 -2.001108   0.985378   4.769432  -5.060654  28.274199   4.791532  16.751302   3.821530   1.152860   9.931326   0.317081   5.362372   7.182582   3.875893  -1.499626   7.426907   7.804447  21.286656   9.327040  -3.590562  16.694941   0.000040  21.521177  -0.000311  17.352893  -2.374034 -42.803464   4.570330  -6.859993 -16.866717   9.462247   4.583746  -3.059200   0.000074 -40.871681   0.000126  14.161893  -0.993478  41.309681   4.309811   2.922082   4.033590   7.119401   0.000039  -0.000137  32.767956  -1.471220  -7.120298 -45.000000  -0.000000  -0.000000 -11.346253 -10.724481   1.406955  26.562563  -0.001870   0.000754 -10.021929   1.147341   0.541699  -5.633506   0.000100   0.000250
 -2.000438   0.985069   4.770270  -5.072135  28.180776   4.794156  16.732905   3.828630   1.177189   9.851152   0.286082   5.319131   7.160045   3.923180  -1.538571   7.442173   7.788900  21.176287   9.446401  -3.452168  16.766453   0.000051  21.408205  -0.000261  17.365647  -2.320907 -42.617816   4.464186  -6.908706 -16.826147   9.382803   4.401072  -3.087199   0.000080 -40.863517   0.000124  14.141716  -1.017617  41.248432   4.376645   2.994226   4.007716   7.206666   0.000043  -0.000129  32.505637  -1.409001  -7.050856 -45.000000  -0.000000  -0.000000 -11.481105 -10.591898   1.313668  26.096488  -0.001898   0.000576  -9.832370   1.262032   0.584761  -5.581677   0.000102   0.000265
 -1.999750   0.984741   4.771081  -5.083280  28.099377   4.808042  16.715052   3.824632   1.196472   9.774893   0.247646   5.275101   7.138992   3.966954  -1.575694   7.456148   7.774445  21.070618   9.557304  -3.322573  16.831136   0.000061  21.303264  -0.000228  17.377186  -2.270521 -42.442996   4.362633  -6.962233 -16.787343   9.308204   4.224712  -3.111835   0.000077 -40.858142   0.000114  14.125432  -1.039320  41.189712   4.444078   3.084074   3.994423   7.286293   0.000032  -0.000098  32.253334  -1.453549  -7.174899 -45.000000  -0.000000  -0.000000 -11.617485 -10.468456   1.208274  25.660000  -0.001890   0.000430  -9.655534   1.369127   0.624547  -5.534178   0.000103   0.000269
 -1.999097   0.984447   4.771895  -5.089063  27.987704   4.801793  16.699220   3.830723   1.218023   9.703453   0.218126   5.234406   7.119390   4.008263  -1.610527   7.465833   7.766164  20.972200   9.659303  -3.197784  16.889333   0.000065  21.206268  -0.000212  17.388211  -2.222505 -42.276080   4.267453  -7.013692 -16.754246   9.238502   4.058974  -3.136077   0.000072 -40.853329   0.000102  14.112277  -1.058808  41.134125   4.508660   3.141904   3.976753   7.365770   0.000031  -0.000119  32.005787  -1.402624  -7.102248 -45.000000  -0.000000  -0.000000 -11.739067 -10.351990   1.129597  25.251509  -0.001807   0.000422  -9.490686   1.469455   0.661274  -5.491168   0.000101   0.000252
